<svg width="1440" height="200" viewBox="0 0 1440 200" fill="none" xmlns="http://www.w3.org/2000/svg">
<path d="M0 66.5207L34.3 77.6169C68.6 88.2983 137 111.113 206 132.891C274.3 154.668 343 177.483 411 166.075C480 154.668 549 111.113 617 88.6094C685.7 66.5207 754 66.5207 823 99.7056C891.4 132.891 960 199.26 1029 199.26C1097.1 199.26 1166 132.891 1234 99.7056C1302.9 66.5207 1371 66.5207 1406 66.5207H1440V0.150879H1405.7C1371.4 0.150879 1303 0.150879 1234 0.150879C1165.7 0.150879 1097 0.150879 1029 0.150879C960 0.150879 891 0.150879 823 0.150879C754.3 0.150879 686 0.150879 617 0.150879C548.6 0.150879 480 0.150879 411 0.150879C342.9 0.150879 274 0.150879 206 0.150879C137.1 0.150879 69 0.150879 34 0.150879H0V66.5207Z"/>
</svg>
